<svg xmlns="http://www.w3.org/2000/svg" width="75" height="35" fill="none" viewBox="0 0 75 35">
  <path fill="#fff" d="M37.575 6.639c-1.583 0-3.1.605-4.251 1.656l3.116 3.115a1.882 1.882 0 011.135-.378c.42 0 .812.136 1.135.378l3.116-3.115a6.318 6.318 0 00-4.25-1.656z"/>
  <path fill="#fff" d="M37.575 0c-3.36 0-6.564 1.282-8.988 3.56l3.111 3.11a8.726 8.726 0 0111.754 0l3.111-3.11A13.116 13.116 0 0037.575 0zM56.25 7.224v4.393h7.178v4.004H11.572v-4.004h7.178V7.224H0v4.393h7.178v11.002l17.187 4.686v5.206h4.688V35h4.394v-2.49h8.106V35h4.394v-2.49h4.688v-5.205l17.187-4.686V11.617H75V7.224H56.25z"/>
</svg>
